<svg width="33" height="30" viewBox="0 0 27 37" fill="none" xmlns="http://www.w3.org/2000/svg">
<path d="M0.5 10.5H26.5V28C26.5 32.6944 22.6944 36.5 18 36.5H9C4.30558 36.5 0.5 32.6944 0.5 28V10.5Z" stroke="#ff0f0f"/>
<line x1="8.5" y1="18" x2="8.5" y2="28" stroke="#ff0f0f"/>
<line x1="13.5" y1="18" x2="13.5" y2="28" stroke="#ff0f0f"/>
<line x1="18.5" y1="18" x2="18.5" y2="28" stroke="#ff0f0f"/>
<path d="M6 5.5H21C23.869 5.5 26.225 7.69675 26.4776 10.5H0.522422C0.775036 7.69675 3.13098 5.5 6 5.5Z" stroke="#ff0f0f"/>
<path d="M11 0.5H15C16.3807 0.5 17.5 1.61929 17.5 3V5.5H8.5V3C8.5 1.61929 9.61929 0.5 11 0.5Z" stroke="#ff0f0f"/>
</svg>
