<svg width="20" height="24" viewBox="0 0 20 24" fill="none" xmlns="http://www.w3.org/2000/svg">
<path d="M2.13517 17.5L10 1.15326L17.8648 17.5H2.13517Z" stroke="white"/>
<path d="M10.6875 8.45455L10.6236 13.1591H9.8821L9.81818 8.45455H10.6875ZM10.2528 15.0511C10.0952 15.0511 9.95987 14.9947 9.84695 14.8817C9.73402 14.7688 9.67756 14.6335 9.67756 14.4759C9.67756 14.3182 9.73402 14.1829 9.84695 14.07C9.95987 13.957 10.0952 13.9006 10.2528 13.9006C10.4105 13.9006 10.5458 13.957 10.6587 14.07C10.7717 14.1829 10.8281 14.3182 10.8281 14.4759C10.8281 14.5803 10.8015 14.6761 10.7482 14.7635C10.6971 14.8509 10.6278 14.9212 10.5405 14.9744C10.4553 15.0256 10.3594 15.0511 10.2528 15.0511Z" fill="white"/>
</svg>
