<svg width="20" height="24" viewBox="0 0 50 50" fill="none" xmlns="http://www.w3.org/2000/svg">
<path d="M19.7169 5.28312C14.9619 6.55721 10.8275 9.50675 8.07544 13.5883C5.32337 17.6699 4.139 22.6085 4.74054 27.4943C5.34208 32.3801 7.689 36.884 11.3489 40.1761C15.0088 43.4683 19.7352 45.3269 24.6572 45.4095C29.5792 45.4922 34.3653 43.7934 38.1337 40.626C41.9021 37.4586 44.399 33.0361 45.1642 28.1733C45.9295 23.3104 44.9117 18.3348 42.2982 14.1631C39.6847 9.99141 35.6517 6.90471 30.9422 5.47166L29.1725 11.2875C32.4795 12.2937 35.3114 14.4612 37.1465 17.3905C38.9817 20.3198 39.6964 23.8136 39.159 27.2282C38.6217 30.6429 36.8684 33.7483 34.2223 35.9723C31.5762 38.1964 28.2154 39.3893 24.7593 39.3313C21.3031 39.2732 17.9843 37.9681 15.4144 35.6565C12.8445 33.3448 11.1965 30.1822 10.7741 26.7515C10.3517 23.3207 11.1833 19.8529 13.1158 16.9869C15.0483 14.1209 17.9514 12.0497 21.2902 11.1551L19.7169 5.28312Z" fill="#D9D9D9"/>
<rect x="23.8854" y="0.222321" width="2.61146" height="15.6688" fill="#D9D9D9"/>
</svg>
