<svg width="21" height="21" viewBox="0 0 21 21" fill="none" xmlns="http://www.w3.org/2000/svg">
<path d="M11.0625 7L10.9844 12.75H10.0781L10 7H11.0625ZM10.5313 15.0625C10.3385 15.0625 10.1732 14.9935 10.0352 14.8555C9.89714 14.7174 9.82813 14.5521 9.82813 14.3594C9.82813 14.1667 9.89714 14.0013 10.0352 13.8633C10.1732 13.7253 10.3385 13.6562 10.5313 13.6562C10.724 13.6562 10.8893 13.7253 11.0273 13.8633C11.1654 14.0013 11.2344 14.1667 11.2344 14.3594C11.2344 14.487 11.2018 14.6042 11.1367 14.7109C11.0742 14.8177 10.9896 14.9036 10.8828 14.9687C10.7786 15.0313 10.6615 15.0625 10.5313 15.0625Z" fill="white"/>
<circle cx="10.5" cy="10.5" r="10" stroke="white"/>
</svg>
